<mxfile host="app.diagrams.net" modified="2023-04-13T20:37:53.887Z" agent="Mozilla/5.0 (Windows NT 10.0; Win64; x64) AppleWebKit/537.36 (KHTML, like Gecko) Chrome/111.0.0.0 Safari/537.36" etag="L8h_cnjXCHwx-gNH8OtU" version="21.1.7" type="device">
  <diagram name="Strona-1" id="J3H218FvRR7sf2Q2_VdL">
    <mxGraphModel dx="1591" dy="1843" grid="1" gridSize="10" guides="1" tooltips="1" connect="1" arrows="1" fold="1" page="1" pageScale="1" pageWidth="827" pageHeight="1169" math="0" shadow="0">
      <root>
        <mxCell id="0" />
        <mxCell id="1" parent="0" />
        <mxCell id="kNcCSW4v_LWdlN9eG9Ws-5" value="Pensjonat" style="whiteSpace=wrap;html=1;align=center;" vertex="1" parent="1">
          <mxGeometry x="100" y="100" width="100" height="40" as="geometry" />
        </mxCell>
        <mxCell id="kNcCSW4v_LWdlN9eG9Ws-6" value="" style="endArrow=none;html=1;rounded=0;exitX=0;exitY=1;exitDx=0;exitDy=0;" edge="1" parent="1" source="kNcCSW4v_LWdlN9eG9Ws-5" target="kNcCSW4v_LWdlN9eG9Ws-7">
          <mxGeometry relative="1" as="geometry">
            <mxPoint x="330" y="230" as="sourcePoint" />
            <mxPoint x="70" y="160" as="targetPoint" />
          </mxGeometry>
        </mxCell>
        <mxCell id="kNcCSW4v_LWdlN9eG9Ws-7" value="ID Pensjonatu" style="ellipse;whiteSpace=wrap;html=1;align=center;" vertex="1" parent="1">
          <mxGeometry x="10" y="170" width="100" height="40" as="geometry" />
        </mxCell>
        <mxCell id="kNcCSW4v_LWdlN9eG9Ws-8" value="" style="endArrow=none;html=1;rounded=0;exitX=0.5;exitY=1;exitDx=0;exitDy=0;" edge="1" parent="1" source="kNcCSW4v_LWdlN9eG9Ws-5" target="kNcCSW4v_LWdlN9eG9Ws-9">
          <mxGeometry relative="1" as="geometry">
            <mxPoint x="330" y="230" as="sourcePoint" />
            <mxPoint x="150" y="200" as="targetPoint" />
          </mxGeometry>
        </mxCell>
        <mxCell id="kNcCSW4v_LWdlN9eG9Ws-9" value="Nazwa" style="ellipse;whiteSpace=wrap;html=1;align=center;" vertex="1" parent="1">
          <mxGeometry x="100" y="220" width="100" height="40" as="geometry" />
        </mxCell>
        <mxCell id="kNcCSW4v_LWdlN9eG9Ws-10" value="" style="endArrow=none;html=1;rounded=0;exitX=1;exitY=1;exitDx=0;exitDy=0;" edge="1" parent="1" source="kNcCSW4v_LWdlN9eG9Ws-5" target="kNcCSW4v_LWdlN9eG9Ws-11">
          <mxGeometry relative="1" as="geometry">
            <mxPoint x="330" y="230" as="sourcePoint" />
            <mxPoint x="230" y="140" as="targetPoint" />
          </mxGeometry>
        </mxCell>
        <mxCell id="kNcCSW4v_LWdlN9eG9Ws-11" value="Adres" style="ellipse;whiteSpace=wrap;html=1;align=center;" vertex="1" parent="1">
          <mxGeometry x="200" y="170" width="100" height="40" as="geometry" />
        </mxCell>
        <mxCell id="kNcCSW4v_LWdlN9eG9Ws-13" value="" style="endArrow=none;html=1;rounded=0;exitX=0;exitY=0;exitDx=0;exitDy=0;" edge="1" parent="1" source="kNcCSW4v_LWdlN9eG9Ws-5" target="kNcCSW4v_LWdlN9eG9Ws-14">
          <mxGeometry relative="1" as="geometry">
            <mxPoint x="330" y="160" as="sourcePoint" />
            <mxPoint x="60" y="40" as="targetPoint" />
          </mxGeometry>
        </mxCell>
        <mxCell id="kNcCSW4v_LWdlN9eG9Ws-14" value="Miasto" style="ellipse;whiteSpace=wrap;html=1;align=center;" vertex="1" parent="1">
          <mxGeometry y="30" width="100" height="40" as="geometry" />
        </mxCell>
        <mxCell id="kNcCSW4v_LWdlN9eG9Ws-15" value="" style="endArrow=none;html=1;rounded=0;exitX=0.5;exitY=0;exitDx=0;exitDy=0;" edge="1" parent="1" source="kNcCSW4v_LWdlN9eG9Ws-5" target="kNcCSW4v_LWdlN9eG9Ws-16">
          <mxGeometry relative="1" as="geometry">
            <mxPoint x="330" y="160" as="sourcePoint" />
            <mxPoint x="150" as="targetPoint" />
          </mxGeometry>
        </mxCell>
        <mxCell id="kNcCSW4v_LWdlN9eG9Ws-16" value="Nr Telefonu" style="ellipse;whiteSpace=wrap;html=1;align=center;" vertex="1" parent="1">
          <mxGeometry x="100" y="-10" width="100" height="40" as="geometry" />
        </mxCell>
        <mxCell id="kNcCSW4v_LWdlN9eG9Ws-17" value="" style="endArrow=none;html=1;rounded=0;exitX=1;exitY=0;exitDx=0;exitDy=0;" edge="1" parent="1" source="kNcCSW4v_LWdlN9eG9Ws-5" target="kNcCSW4v_LWdlN9eG9Ws-18">
          <mxGeometry relative="1" as="geometry">
            <mxPoint x="330" y="160" as="sourcePoint" />
            <mxPoint x="240" y="50" as="targetPoint" />
          </mxGeometry>
        </mxCell>
        <mxCell id="kNcCSW4v_LWdlN9eG9Ws-18" value="Ocena" style="ellipse;whiteSpace=wrap;html=1;align=center;" vertex="1" parent="1">
          <mxGeometry x="190" y="30" width="100" height="40" as="geometry" />
        </mxCell>
        <mxCell id="kNcCSW4v_LWdlN9eG9Ws-19" value="" style="edgeStyle=entityRelationEdgeStyle;fontSize=12;html=1;endArrow=ERzeroToMany;endFill=1;rounded=0;entryX=1;entryY=0.5;entryDx=0;entryDy=0;" edge="1" parent="1" source="kNcCSW4v_LWdlN9eG9Ws-21" target="kNcCSW4v_LWdlN9eG9Ws-5">
          <mxGeometry width="100" height="100" relative="1" as="geometry">
            <mxPoint x="430" y="120" as="sourcePoint" />
            <mxPoint x="460" y="110" as="targetPoint" />
          </mxGeometry>
        </mxCell>
        <mxCell id="kNcCSW4v_LWdlN9eG9Ws-21" value="Znajduje sie w&amp;nbsp;" style="shape=rhombus;perimeter=rhombusPerimeter;whiteSpace=wrap;html=1;align=center;" vertex="1" parent="1">
          <mxGeometry x="310" y="90" width="120" height="60" as="geometry" />
        </mxCell>
        <mxCell id="kNcCSW4v_LWdlN9eG9Ws-23" value="" style="endArrow=none;html=1;rounded=0;exitX=1;exitY=0.5;exitDx=0;exitDy=0;" edge="1" parent="1" source="kNcCSW4v_LWdlN9eG9Ws-21">
          <mxGeometry relative="1" as="geometry">
            <mxPoint x="330" y="160" as="sourcePoint" />
            <mxPoint x="520" y="120" as="targetPoint" />
          </mxGeometry>
        </mxCell>
        <mxCell id="kNcCSW4v_LWdlN9eG9Ws-24" value="Pokój" style="shape=ext;margin=3;double=1;whiteSpace=wrap;html=1;align=center;" vertex="1" parent="1">
          <mxGeometry x="520" y="100" width="100" height="40" as="geometry" />
        </mxCell>
        <mxCell id="kNcCSW4v_LWdlN9eG9Ws-25" value="" style="endArrow=none;html=1;rounded=0;entryX=0;entryY=1;entryDx=0;entryDy=0;" edge="1" parent="1" target="kNcCSW4v_LWdlN9eG9Ws-24">
          <mxGeometry relative="1" as="geometry">
            <mxPoint x="470" y="190" as="sourcePoint" />
            <mxPoint x="490" y="160" as="targetPoint" />
          </mxGeometry>
        </mxCell>
        <mxCell id="kNcCSW4v_LWdlN9eG9Ws-26" value="ID Pokoju" style="ellipse;whiteSpace=wrap;html=1;align=center;" vertex="1" parent="1">
          <mxGeometry x="430" y="170" width="100" height="40" as="geometry" />
        </mxCell>
        <mxCell id="kNcCSW4v_LWdlN9eG9Ws-27" value="" style="endArrow=none;html=1;rounded=0;entryX=1;entryY=1;entryDx=0;entryDy=0;" edge="1" parent="1" target="kNcCSW4v_LWdlN9eG9Ws-24">
          <mxGeometry relative="1" as="geometry">
            <mxPoint x="660" y="180" as="sourcePoint" />
            <mxPoint x="490" y="160" as="targetPoint" />
          </mxGeometry>
        </mxCell>
        <mxCell id="kNcCSW4v_LWdlN9eG9Ws-28" value="Rodzaj pokoju" style="ellipse;whiteSpace=wrap;html=1;align=center;" vertex="1" parent="1">
          <mxGeometry x="620" y="170" width="100" height="40" as="geometry" />
        </mxCell>
        <mxCell id="kNcCSW4v_LWdlN9eG9Ws-29" value="" style="endArrow=none;html=1;rounded=0;entryX=0;entryY=0;entryDx=0;entryDy=0;" edge="1" parent="1" target="kNcCSW4v_LWdlN9eG9Ws-24">
          <mxGeometry relative="1" as="geometry">
            <mxPoint x="470" y="60" as="sourcePoint" />
            <mxPoint x="490" y="160" as="targetPoint" />
          </mxGeometry>
        </mxCell>
        <mxCell id="kNcCSW4v_LWdlN9eG9Ws-30" value="Numer pokoju" style="ellipse;whiteSpace=wrap;html=1;align=center;" vertex="1" parent="1">
          <mxGeometry x="430" y="40" width="100" height="40" as="geometry" />
        </mxCell>
        <mxCell id="kNcCSW4v_LWdlN9eG9Ws-31" value="" style="endArrow=none;html=1;rounded=0;entryX=1;entryY=0;entryDx=0;entryDy=0;" edge="1" parent="1" target="kNcCSW4v_LWdlN9eG9Ws-24">
          <mxGeometry relative="1" as="geometry">
            <mxPoint x="660" y="70" as="sourcePoint" />
            <mxPoint x="490" y="160" as="targetPoint" />
          </mxGeometry>
        </mxCell>
        <mxCell id="kNcCSW4v_LWdlN9eG9Ws-32" value="Cena za noc" style="ellipse;whiteSpace=wrap;html=1;align=center;" vertex="1" parent="1">
          <mxGeometry x="630" y="40" width="100" height="40" as="geometry" />
        </mxCell>
        <mxCell id="kNcCSW4v_LWdlN9eG9Ws-33" value="" style="edgeStyle=entityRelationEdgeStyle;fontSize=12;html=1;endArrow=ERzeroToMany;endFill=1;rounded=0;entryX=1;entryY=0.5;entryDx=0;entryDy=0;" edge="1" parent="1" source="kNcCSW4v_LWdlN9eG9Ws-34" target="kNcCSW4v_LWdlN9eG9Ws-24">
          <mxGeometry width="100" height="100" relative="1" as="geometry">
            <mxPoint x="570" y="280" as="sourcePoint" />
            <mxPoint x="580" y="170" as="targetPoint" />
          </mxGeometry>
        </mxCell>
        <mxCell id="kNcCSW4v_LWdlN9eG9Ws-34" value="Związany jest z" style="shape=rhombus;perimeter=rhombusPerimeter;whiteSpace=wrap;html=1;align=center;" vertex="1" parent="1">
          <mxGeometry x="760" y="90" width="120" height="60" as="geometry" />
        </mxCell>
        <mxCell id="kNcCSW4v_LWdlN9eG9Ws-37" value="Rezerwacja" style="shape=ext;margin=3;double=1;whiteSpace=wrap;html=1;align=center;" vertex="1" parent="1">
          <mxGeometry x="1000" y="100" width="100" height="40" as="geometry" />
        </mxCell>
        <mxCell id="kNcCSW4v_LWdlN9eG9Ws-38" value="" style="edgeStyle=entityRelationEdgeStyle;fontSize=12;html=1;endArrow=ERzeroToMany;endFill=1;rounded=0;exitX=1;exitY=0.5;exitDx=0;exitDy=0;entryX=0;entryY=0.5;entryDx=0;entryDy=0;" edge="1" parent="1" source="kNcCSW4v_LWdlN9eG9Ws-34" target="kNcCSW4v_LWdlN9eG9Ws-37">
          <mxGeometry width="100" height="100" relative="1" as="geometry">
            <mxPoint x="1270" y="300" as="sourcePoint" />
            <mxPoint x="1370" y="200" as="targetPoint" />
          </mxGeometry>
        </mxCell>
        <mxCell id="kNcCSW4v_LWdlN9eG9Ws-39" value="" style="endArrow=none;html=1;rounded=0;exitX=0;exitY=1;exitDx=0;exitDy=0;" edge="1" parent="1" source="kNcCSW4v_LWdlN9eG9Ws-37" target="kNcCSW4v_LWdlN9eG9Ws-40">
          <mxGeometry relative="1" as="geometry">
            <mxPoint x="1240" y="250" as="sourcePoint" />
            <mxPoint x="980" y="220" as="targetPoint" />
          </mxGeometry>
        </mxCell>
        <mxCell id="kNcCSW4v_LWdlN9eG9Ws-40" value="Cena" style="ellipse;whiteSpace=wrap;html=1;align=center;" vertex="1" parent="1">
          <mxGeometry x="900" y="190" width="100" height="40" as="geometry" />
        </mxCell>
        <mxCell id="kNcCSW4v_LWdlN9eG9Ws-41" value="" style="endArrow=none;html=1;rounded=0;exitX=1;exitY=1;exitDx=0;exitDy=0;" edge="1" parent="1" source="kNcCSW4v_LWdlN9eG9Ws-37" target="kNcCSW4v_LWdlN9eG9Ws-42">
          <mxGeometry relative="1" as="geometry">
            <mxPoint x="1240" y="250" as="sourcePoint" />
            <mxPoint x="1170" y="210" as="targetPoint" />
          </mxGeometry>
        </mxCell>
        <mxCell id="kNcCSW4v_LWdlN9eG9Ws-42" value="Data" style="ellipse;whiteSpace=wrap;html=1;align=center;" vertex="1" parent="1">
          <mxGeometry x="1120" y="190" width="100" height="40" as="geometry" />
        </mxCell>
        <mxCell id="kNcCSW4v_LWdlN9eG9Ws-43" value="" style="endArrow=none;html=1;rounded=0;exitX=0.5;exitY=0;exitDx=0;exitDy=0;" edge="1" parent="1" source="kNcCSW4v_LWdlN9eG9Ws-37" target="kNcCSW4v_LWdlN9eG9Ws-44">
          <mxGeometry relative="1" as="geometry">
            <mxPoint x="1240" y="250" as="sourcePoint" />
            <mxPoint x="1050" y="40" as="targetPoint" />
          </mxGeometry>
        </mxCell>
        <mxCell id="kNcCSW4v_LWdlN9eG9Ws-44" value="ID Rezerwacji" style="ellipse;whiteSpace=wrap;html=1;align=center;" vertex="1" parent="1">
          <mxGeometry x="1000" y="20" width="100" height="40" as="geometry" />
        </mxCell>
        <mxCell id="kNcCSW4v_LWdlN9eG9Ws-45" value="" style="edgeStyle=entityRelationEdgeStyle;fontSize=12;html=1;endArrow=ERzeroToMany;endFill=1;rounded=0;entryX=1;entryY=0.5;entryDx=0;entryDy=0;" edge="1" parent="1" target="kNcCSW4v_LWdlN9eG9Ws-37">
          <mxGeometry width="100" height="100" relative="1" as="geometry">
            <mxPoint x="1190" y="430" as="sourcePoint" />
            <mxPoint x="1370" y="200" as="targetPoint" />
          </mxGeometry>
        </mxCell>
        <mxCell id="kNcCSW4v_LWdlN9eG9Ws-46" value="Goście" style="whiteSpace=wrap;html=1;align=center;" vertex="1" parent="1">
          <mxGeometry x="1090" y="410" width="100" height="40" as="geometry" />
        </mxCell>
        <mxCell id="kNcCSW4v_LWdlN9eG9Ws-50" value="" style="endArrow=none;html=1;rounded=0;entryX=0;entryY=0;entryDx=0;entryDy=0;exitX=1;exitY=1;exitDx=0;exitDy=0;" edge="1" parent="1" source="kNcCSW4v_LWdlN9eG9Ws-53" target="kNcCSW4v_LWdlN9eG9Ws-46">
          <mxGeometry relative="1" as="geometry">
            <mxPoint x="1010" y="360" as="sourcePoint" />
            <mxPoint x="1110" y="250" as="targetPoint" />
          </mxGeometry>
        </mxCell>
        <mxCell id="kNcCSW4v_LWdlN9eG9Ws-53" value="ID Gościa" style="ellipse;whiteSpace=wrap;html=1;align=center;" vertex="1" parent="1">
          <mxGeometry x="900" y="330" width="100" height="40" as="geometry" />
        </mxCell>
        <mxCell id="kNcCSW4v_LWdlN9eG9Ws-54" value="" style="endArrow=none;html=1;rounded=0;entryX=0.59;entryY=-0.008;entryDx=0;entryDy=0;entryPerimeter=0;" edge="1" parent="1" target="kNcCSW4v_LWdlN9eG9Ws-46">
          <mxGeometry relative="1" as="geometry">
            <mxPoint x="1160" y="340" as="sourcePoint" />
            <mxPoint x="1110" y="250" as="targetPoint" />
          </mxGeometry>
        </mxCell>
        <mxCell id="kNcCSW4v_LWdlN9eG9Ws-55" value="Imię i nazwisko" style="ellipse;whiteSpace=wrap;html=1;align=center;" vertex="1" parent="1">
          <mxGeometry x="1110" y="300" width="100" height="40" as="geometry" />
        </mxCell>
        <mxCell id="kNcCSW4v_LWdlN9eG9Ws-56" value="" style="endArrow=none;html=1;rounded=0;entryX=0;entryY=1;entryDx=0;entryDy=0;" edge="1" parent="1" target="kNcCSW4v_LWdlN9eG9Ws-46">
          <mxGeometry relative="1" as="geometry">
            <mxPoint x="1030" y="510" as="sourcePoint" />
            <mxPoint x="1110" y="250" as="targetPoint" />
          </mxGeometry>
        </mxCell>
        <mxCell id="kNcCSW4v_LWdlN9eG9Ws-57" value="Adres" style="ellipse;whiteSpace=wrap;html=1;align=center;" vertex="1" parent="1">
          <mxGeometry x="980" y="490" width="100" height="40" as="geometry" />
        </mxCell>
        <mxCell id="kNcCSW4v_LWdlN9eG9Ws-58" value="" style="endArrow=none;html=1;rounded=0;entryX=0.5;entryY=1;entryDx=0;entryDy=0;" edge="1" parent="1" target="kNcCSW4v_LWdlN9eG9Ws-46">
          <mxGeometry relative="1" as="geometry">
            <mxPoint x="1150" y="500" as="sourcePoint" />
            <mxPoint x="1110" y="400" as="targetPoint" />
          </mxGeometry>
        </mxCell>
        <mxCell id="kNcCSW4v_LWdlN9eG9Ws-59" value="Pesel" style="ellipse;whiteSpace=wrap;html=1;align=center;" vertex="1" parent="1">
          <mxGeometry x="1100" y="500" width="100" height="40" as="geometry" />
        </mxCell>
        <mxCell id="kNcCSW4v_LWdlN9eG9Ws-60" value="" style="endArrow=none;html=1;rounded=0;entryX=1;entryY=0.75;entryDx=0;entryDy=0;exitX=0;exitY=0.5;exitDx=0;exitDy=0;" edge="1" parent="1" source="kNcCSW4v_LWdlN9eG9Ws-61" target="kNcCSW4v_LWdlN9eG9Ws-46">
          <mxGeometry relative="1" as="geometry">
            <mxPoint x="1250" y="480" as="sourcePoint" />
            <mxPoint x="1110" y="400" as="targetPoint" />
          </mxGeometry>
        </mxCell>
        <mxCell id="kNcCSW4v_LWdlN9eG9Ws-61" value="ID Booking" style="ellipse;whiteSpace=wrap;html=1;align=center;" vertex="1" parent="1">
          <mxGeometry x="1280" y="420" width="100" height="40" as="geometry" />
        </mxCell>
        <mxCell id="kNcCSW4v_LWdlN9eG9Ws-62" value="" style="endArrow=none;html=1;rounded=0;entryX=0.25;entryY=0;entryDx=0;entryDy=0;" edge="1" parent="1" target="kNcCSW4v_LWdlN9eG9Ws-46">
          <mxGeometry relative="1" as="geometry">
            <mxPoint x="1050" y="320" as="sourcePoint" />
            <mxPoint x="1110" y="400" as="targetPoint" />
          </mxGeometry>
        </mxCell>
        <mxCell id="kNcCSW4v_LWdlN9eG9Ws-63" value="Nr telefonu" style="ellipse;whiteSpace=wrap;html=1;align=center;" vertex="1" parent="1">
          <mxGeometry x="1000" y="290" width="100" height="40" as="geometry" />
        </mxCell>
        <mxCell id="kNcCSW4v_LWdlN9eG9Ws-64" value="" style="endArrow=none;html=1;rounded=0;entryX=0.75;entryY=1;entryDx=0;entryDy=0;" edge="1" parent="1" target="kNcCSW4v_LWdlN9eG9Ws-46">
          <mxGeometry relative="1" as="geometry">
            <mxPoint x="1260" y="510" as="sourcePoint" />
            <mxPoint x="1110" y="400" as="targetPoint" />
          </mxGeometry>
        </mxCell>
        <mxCell id="kNcCSW4v_LWdlN9eG9Ws-65" value="e-mail" style="ellipse;whiteSpace=wrap;html=1;align=center;" vertex="1" parent="1">
          <mxGeometry x="1241" y="490" width="100" height="40" as="geometry" />
        </mxCell>
        <mxCell id="kNcCSW4v_LWdlN9eG9Ws-67" value="" style="endArrow=none;html=1;rounded=0;entryX=0;entryY=0.5;entryDx=0;entryDy=0;" edge="1" parent="1" target="kNcCSW4v_LWdlN9eG9Ws-46">
          <mxGeometry relative="1" as="geometry">
            <mxPoint x="890" y="430" as="sourcePoint" />
            <mxPoint x="1110" y="400" as="targetPoint" />
          </mxGeometry>
        </mxCell>
        <mxCell id="kNcCSW4v_LWdlN9eG9Ws-68" value="Płaci" style="shape=rhombus;perimeter=rhombusPerimeter;whiteSpace=wrap;html=1;align=center;" vertex="1" parent="1">
          <mxGeometry x="790" y="400" width="120" height="60" as="geometry" />
        </mxCell>
        <mxCell id="kNcCSW4v_LWdlN9eG9Ws-69" value="" style="edgeStyle=entityRelationEdgeStyle;fontSize=12;html=1;endArrow=ERzeroToMany;endFill=1;rounded=0;exitX=0;exitY=0.5;exitDx=0;exitDy=0;" edge="1" parent="1" source="kNcCSW4v_LWdlN9eG9Ws-68" target="kNcCSW4v_LWdlN9eG9Ws-70">
          <mxGeometry width="100" height="100" relative="1" as="geometry">
            <mxPoint x="980" y="450" as="sourcePoint" />
            <mxPoint x="570" y="460" as="targetPoint" />
          </mxGeometry>
        </mxCell>
        <mxCell id="kNcCSW4v_LWdlN9eG9Ws-70" value="Rachunek" style="whiteSpace=wrap;html=1;align=center;" vertex="1" parent="1">
          <mxGeometry x="520" y="410" width="100" height="40" as="geometry" />
        </mxCell>
        <mxCell id="kNcCSW4v_LWdlN9eG9Ws-71" value="" style="endArrow=none;html=1;rounded=0;exitX=0.75;exitY=1;exitDx=0;exitDy=0;" edge="1" parent="1" source="kNcCSW4v_LWdlN9eG9Ws-70" target="kNcCSW4v_LWdlN9eG9Ws-72">
          <mxGeometry relative="1" as="geometry">
            <mxPoint x="770" y="420" as="sourcePoint" />
            <mxPoint x="660" y="510" as="targetPoint" />
          </mxGeometry>
        </mxCell>
        <mxCell id="kNcCSW4v_LWdlN9eG9Ws-72" value="ID rachunku" style="ellipse;whiteSpace=wrap;html=1;align=center;" vertex="1" parent="1">
          <mxGeometry x="610" y="490" width="100" height="40" as="geometry" />
        </mxCell>
        <mxCell id="kNcCSW4v_LWdlN9eG9Ws-73" value="" style="endArrow=none;html=1;rounded=0;exitX=0;exitY=1;exitDx=0;exitDy=0;" edge="1" parent="1" source="kNcCSW4v_LWdlN9eG9Ws-70" target="kNcCSW4v_LWdlN9eG9Ws-74">
          <mxGeometry relative="1" as="geometry">
            <mxPoint x="770" y="420" as="sourcePoint" />
            <mxPoint x="460" y="510" as="targetPoint" />
          </mxGeometry>
        </mxCell>
        <mxCell id="kNcCSW4v_LWdlN9eG9Ws-74" value="Cena" style="ellipse;whiteSpace=wrap;html=1;align=center;" vertex="1" parent="1">
          <mxGeometry x="410" y="490" width="100" height="40" as="geometry" />
        </mxCell>
        <mxCell id="kNcCSW4v_LWdlN9eG9Ws-75" value="" style="endArrow=none;html=1;rounded=0;exitX=0.5;exitY=0;exitDx=0;exitDy=0;" edge="1" parent="1" source="kNcCSW4v_LWdlN9eG9Ws-70" target="kNcCSW4v_LWdlN9eG9Ws-76">
          <mxGeometry relative="1" as="geometry">
            <mxPoint x="770" y="420" as="sourcePoint" />
            <mxPoint x="570" y="350" as="targetPoint" />
          </mxGeometry>
        </mxCell>
        <mxCell id="kNcCSW4v_LWdlN9eG9Ws-76" value="Podatek" style="ellipse;whiteSpace=wrap;html=1;align=center;" vertex="1" parent="1">
          <mxGeometry x="520" y="330" width="100" height="40" as="geometry" />
        </mxCell>
      </root>
    </mxGraphModel>
  </diagram>
</mxfile>
